<svg xmlns="http://www.w3.org/2000/svg" width="397" height="397" fill="none" viewBox="0 0 397 397"><rect width="397" height="397" fill="#fff"/><g filter="url(#filter0_di_78_83)"><path fill="url(#paint0_linear_78_83)" d="M82.5615 135.447C82.5615 128.621 87.5716 122.829 94.3268 121.846L247.346 99.5765C255.637 98.3698 263.07 104.799 263.07 113.178V215.146C263.07 221.972 258.06 227.764 251.305 228.747L98.2858 251.017C89.9942 252.223 82.5615 245.794 82.5615 237.415V135.447Z"/></g><g filter="url(#filter1_di_78_83)"><path fill="url(#paint1_linear_78_83)" d="M108.246 158.747C108.246 151.921 113.256 146.129 120.011 145.146L273.03 122.876C281.322 121.67 288.754 128.099 288.754 136.478V238.446C288.754 245.272 283.744 251.064 276.989 252.047L123.97 274.317C115.679 275.523 108.246 269.094 108.246 260.715V158.747Z"/></g><g filter="url(#filter2_di_78_83)"><path fill="url(#paint2_linear_78_83)" d="M133.931 181.855C133.931 175.028 138.941 169.236 145.696 168.253L298.715 145.984C307.006 144.777 314.439 151.206 314.439 159.585V261.553C314.439 268.379 309.429 274.171 302.674 275.155L149.655 297.424C141.363 298.631 133.931 292.201 133.931 283.822V181.855Z"/></g><g filter="url(#filter3_i_78_83)"><path fill="#fff" d="M206.554 247.03L207.14 206.819C207.198 202.852 211.213 200.174 214.897 201.645L252.663 216.719C256.915 218.416 257.497 224.198 253.667 226.709L215.316 251.846C211.521 254.333 206.488 251.567 206.554 247.03Z"/></g><defs><filter id="filter0_di_78_83" width="197.488" height="169.519" x="77.71" y="94.58" color-interpolation-filters="sRGB" filterUnits="userSpaceOnUse"><feFlood flood-opacity="0" result="BackgroundImageFix"/><feColorMatrix in="SourceAlpha" result="hardAlpha" type="matrix" values="0 0 0 0 0 0 0 0 0 0 0 0 0 0 0 0 0 0 127 0"/><feOffset dx="-4.851" dy="-4.851"/><feComposite in2="hardAlpha" operator="out"/><feColorMatrix type="matrix" values="0 0 0 0 1 0 0 0 0 1 0 0 0 0 1 0 0 0 1 0"/><feBlend in2="BackgroundImageFix" mode="normal" result="effect1_dropShadow_78_83"/><feBlend in="SourceGraphic" in2="effect1_dropShadow_78_83" mode="normal" result="shape"/><feColorMatrix in="SourceAlpha" result="hardAlpha" type="matrix" values="0 0 0 0 0 0 0 0 0 0 0 0 0 0 0 0 0 0 127 0"/><feOffset dx="12.128" dy="12.936"/><feGaussianBlur stdDeviation="8.085"/><feComposite in2="hardAlpha" k2="-1" k3="1" operator="arithmetic"/><feColorMatrix type="matrix" values="0 0 0 0 0 0 0 0 0 0 0 0 0 0 0 0 0 0 0.62 0"/><feBlend in2="shape" mode="normal" result="effect2_innerShadow_78_83"/></filter><filter id="filter1_di_78_83" width="202.339" height="174.37" x="98.544" y="113.028" color-interpolation-filters="sRGB" filterUnits="userSpaceOnUse"><feFlood flood-opacity="0" result="BackgroundImageFix"/><feColorMatrix in="SourceAlpha" result="hardAlpha" type="matrix" values="0 0 0 0 0 0 0 0 0 0 0 0 0 0 0 0 0 0 127 0"/><feOffset dx="-9.702" dy="-9.702"/><feComposite in2="hardAlpha" operator="out"/><feColorMatrix type="matrix" values="0 0 0 0 1 0 0 0 0 1 0 0 0 0 1 0 0 0 1 0"/><feBlend in2="BackgroundImageFix" mode="normal" result="effect1_dropShadow_78_83"/><feBlend in="SourceGraphic" in2="effect1_dropShadow_78_83" mode="normal" result="shape"/><feColorMatrix in="SourceAlpha" result="hardAlpha" type="matrix" values="0 0 0 0 0 0 0 0 0 0 0 0 0 0 0 0 0 0 127 0"/><feOffset dx="12.128" dy="12.936"/><feGaussianBlur stdDeviation="8.085"/><feComposite in2="hardAlpha" k2="-1" k3="1" operator="arithmetic"/><feColorMatrix type="matrix" values="0 0 0 0 0 0 0 0 0 0 0 0 0 0 0 0 0 0 0.62 0"/><feBlend in2="shape" mode="normal" result="effect2_innerShadow_78_83"/></filter><filter id="filter2_di_78_83" width="202.339" height="174.37" x="124.228" y="136.136" color-interpolation-filters="sRGB" filterUnits="userSpaceOnUse"><feFlood flood-opacity="0" result="BackgroundImageFix"/><feColorMatrix in="SourceAlpha" result="hardAlpha" type="matrix" values="0 0 0 0 0 0 0 0 0 0 0 0 0 0 0 0 0 0 127 0"/><feOffset dx="-9.702" dy="-9.702"/><feComposite in2="hardAlpha" operator="out"/><feColorMatrix type="matrix" values="0 0 0 0 1 0 0 0 0 1 0 0 0 0 1 0 0 0 1 0"/><feBlend in2="BackgroundImageFix" mode="normal" result="effect1_dropShadow_78_83"/><feBlend in="SourceGraphic" in2="effect1_dropShadow_78_83" mode="normal" result="shape"/><feColorMatrix in="SourceAlpha" result="hardAlpha" type="matrix" values="0 0 0 0 0 0 0 0 0 0 0 0 0 0 0 0 0 0 127 0"/><feOffset dx="12.128" dy="12.936"/><feGaussianBlur stdDeviation="8.085"/><feComposite in2="hardAlpha" k2="-1" k3="1" operator="arithmetic"/><feColorMatrix type="matrix" values="0 0 0 0 0 0 0 0 0 0 0 0 0 0 0 0 0 0 0.62 0"/><feBlend in2="shape" mode="normal" result="effect2_innerShadow_78_83"/></filter><filter id="filter3_i_78_83" width="49.671" height="54.78" x="206.554" y="201.236" color-interpolation-filters="sRGB" filterUnits="userSpaceOnUse"><feFlood flood-opacity="0" result="BackgroundImageFix"/><feBlend in="SourceGraphic" in2="BackgroundImageFix" mode="normal" result="shape"/><feColorMatrix in="SourceAlpha" result="hardAlpha" type="matrix" values="0 0 0 0 0 0 0 0 0 0 0 0 0 0 0 0 0 0 127 0"/><feOffset dy="3.234"/><feGaussianBlur stdDeviation="1.617"/><feComposite in2="hardAlpha" k2="-1" k3="1" operator="arithmetic"/><feColorMatrix type="matrix" values="0 0 0 0 0 0 0 0 0 0 0 0 0 0 0 0 0 0 0.25 0"/><feBlend in2="shape" mode="normal" result="effect1_innerShadow_78_83"/></filter><linearGradient id="paint0_linear_78_83" x1="172.816" x2="172.816" y1="97.288" y2="253.305" gradientUnits="userSpaceOnUse"><stop stop-color="#474747"/><stop offset="1" stop-color="#1A1A1A"/></linearGradient><linearGradient id="paint1_linear_78_83" x1="198.5" x2="198.5" y1="120.588" y2="276.605" gradientUnits="userSpaceOnUse"><stop stop-color="#474747"/><stop offset="1" stop-color="#1A1A1A"/></linearGradient><linearGradient id="paint2_linear_78_83" x1="224.185" x2="224.185" y1="143.695" y2="299.712" gradientUnits="userSpaceOnUse"><stop stop-color="#474747"/><stop offset="1" stop-color="#1A1A1A"/></linearGradient></defs></svg>